<svg width="147" height="15" viewBox="0 0 147 15" fill="none" xmlns="http://www.w3.org/2000/svg">
<path d="M97.177 14.3865C93.3264 14.3865 90.1931 11.2532 90.1931 7.40261C90.1931 3.55198 93.3264 0.418701 97.177 0.418701H139.596C143.447 0.418701 146.58 3.55198 146.58 7.40261C146.58 11.2532 143.447 14.3865 139.596 14.3865H97.177Z" fill="white"/>
<path d="M139.596 0.8397C143.221 0.8397 146.16 3.77865 146.16 7.40376C146.16 11.0289 143.221 13.9678 139.596 13.9678H97.177C93.5519 13.9678 90.6129 11.0289 90.6129 7.40376C90.6129 3.77865 93.5519 0.8397 97.177 0.8397H139.596ZM139.596 0H97.177C93.0948 0 89.7732 3.32161 89.7732 7.40376C89.7732 11.4859 93.0948 14.8075 97.177 14.8075H139.596C143.678 14.8075 147 11.4859 147 7.40376C147 3.32161 143.678 0 139.596 0Z" fill="#0500B2"/>
<path d="M112.556 10.4486C112.029 10.4486 111.563 10.3274 111.157 10.0851C110.752 9.83754 110.433 9.50041 110.201 9.07374C109.97 8.6418 109.854 8.14665 109.854 7.58829C109.854 7.02992 109.967 6.53741 110.193 6.11073C110.425 5.67879 110.741 5.34167 111.142 5.09936C111.547 4.85178 112.011 4.728 112.532 4.728C112.864 4.728 113.183 4.78857 113.488 4.90973C113.794 5.02561 114.068 5.19154 114.31 5.40751C114.552 5.61821 114.739 5.86316 114.871 6.14234L114.294 6.43469C114.189 6.21345 114.044 6.02118 113.86 5.85789C113.675 5.69459 113.47 5.56817 113.243 5.47862C113.017 5.38381 112.78 5.3364 112.532 5.3364C112.148 5.3364 111.803 5.43385 111.497 5.62875C111.192 5.81838 110.952 6.08176 110.778 6.41889C110.61 6.75601 110.525 7.14581 110.525 7.58829C110.525 8.03076 110.612 8.4232 110.786 8.76559C110.96 9.10798 111.2 9.37663 111.505 9.57153C111.816 9.76116 112.166 9.85597 112.556 9.85597C112.809 9.85597 113.048 9.80593 113.275 9.70585C113.501 9.6005 113.704 9.45827 113.883 9.27918C114.068 9.10008 114.213 8.89464 114.318 8.66287L114.903 8.95522C114.766 9.24494 114.576 9.50305 114.334 9.72955C114.097 9.95606 113.823 10.1325 113.512 10.2589C113.206 10.3854 112.888 10.4486 112.556 10.4486ZM116.552 8.18089V7.56458H117.816C118.016 7.56458 118.195 7.51981 118.353 7.43026C118.511 7.33544 118.638 7.20902 118.732 7.05099C118.833 6.8877 118.883 6.70333 118.883 6.4979C118.883 6.18184 118.772 5.92637 118.551 5.73147C118.335 5.5313 118.053 5.43122 117.705 5.43122H116.552V4.82281L117.721 4.81491C118.079 4.80964 118.395 4.88076 118.669 5.02825C118.948 5.17047 119.164 5.37064 119.317 5.62875C119.475 5.88159 119.554 6.17131 119.554 6.4979C119.554 6.82449 119.47 7.1142 119.301 7.36705C119.133 7.61989 118.904 7.82006 118.614 7.96755C118.324 8.10978 117.998 8.18089 117.634 8.18089H116.552ZM115.92 10.3538V4.82281H116.591V10.3538H115.92ZM119.041 10.3538L117.713 8.08607L118.243 7.73841L119.775 10.3538H119.041ZM120.866 10.3538V4.82281H121.537V10.3538H120.866ZM121.458 10.3538V9.74536H124.153V10.3538H121.458ZM121.458 7.81743V7.21692H123.908V7.81743H121.458ZM121.458 5.43122V4.82281H124.137V5.43122H121.458ZM121.995 4.49095L122.928 3.51909H123.742L122.722 4.49095H121.995ZM127.225 10.3538V9.73745C127.504 9.73745 127.762 9.68478 127.999 9.57943C128.236 9.46881 128.444 9.31341 128.623 9.11325C128.807 8.91308 128.95 8.68394 129.05 8.42583C129.155 8.16245 129.208 7.88327 129.208 7.58829C129.208 7.2933 129.155 7.01675 129.05 6.75864C128.95 6.49527 128.807 6.26349 128.623 6.06332C128.444 5.86316 128.236 5.7104 127.999 5.60505C127.762 5.49443 127.504 5.43912 127.225 5.43912V4.82281C127.746 4.82281 128.204 4.94133 128.599 5.17837C129 5.41015 129.313 5.7341 129.54 6.15024C129.766 6.56638 129.879 7.04573 129.879 7.58829C129.879 8.12558 129.766 8.60229 129.54 9.01843C129.313 9.43457 129 9.76116 128.599 9.9982C128.204 10.2352 127.746 10.3538 127.225 10.3538ZM126.079 10.3538V9.73745H127.225V10.3538H126.079ZM125.542 10.3538V4.82281H126.213V10.3538H125.542ZM126.079 5.43912V4.82281H127.225V5.43912H126.079ZM130.981 10.3538V4.82281H131.653V10.3538H130.981ZM134.241 10.3538V5.28109H134.904V10.3538H134.241ZM132.479 5.43122V4.82281H136.666V5.43122H132.479ZM139.841 10.4486C139.309 10.4486 138.837 10.3274 138.426 10.0851C138.016 9.84281 137.694 9.50568 137.463 9.07374C137.231 8.6418 137.115 8.14665 137.115 7.58829C137.115 7.02466 137.228 6.5295 137.455 6.10283C137.686 5.67089 138.005 5.33377 138.411 5.09146C138.816 4.84915 139.285 4.728 139.817 4.728C140.349 4.728 140.818 4.85178 141.224 5.09936C141.634 5.34167 141.953 5.67879 142.18 6.11073C142.406 6.53741 142.519 7.02992 142.519 7.58829C142.519 8.14665 142.406 8.6418 142.18 9.07374C141.953 9.50568 141.637 9.84281 141.231 10.0851C140.831 10.3274 140.368 10.4486 139.841 10.4486ZM139.841 9.84017C140.236 9.84017 140.584 9.74536 140.884 9.55572C141.184 9.36082 141.418 9.09481 141.587 8.75769C141.761 8.42056 141.848 8.03076 141.848 7.58829C141.848 7.15108 141.761 6.76391 141.587 6.42679C141.413 6.08439 141.174 5.81838 140.868 5.62875C140.568 5.43385 140.217 5.3364 139.817 5.3364C139.422 5.3364 139.072 5.43385 138.766 5.62875C138.461 5.81838 138.221 6.08439 138.047 6.42679C137.873 6.76391 137.786 7.15108 137.786 7.58829C137.786 8.03076 137.873 8.42056 138.047 8.75769C138.221 9.09481 138.463 9.36082 138.774 9.55572C139.085 9.74536 139.44 9.84017 139.841 9.84017Z" fill="#0500B2"/>
<path d="M38.8467 14.3865C34.9961 14.3865 31.8628 11.2533 31.8628 7.40263C31.8628 3.552 34.9961 0.419922 38.8467 0.419922H100.436C104.287 0.419922 107.42 3.5532 107.42 7.40383C107.42 11.2545 104.287 14.3877 100.436 14.3877H38.8467V14.3865Z" fill="white"/>
<path d="M100.437 0.8397C104.063 0.8397 107.002 3.77865 107.002 7.40376C107.002 11.0289 104.063 13.9678 100.437 13.9678H38.8467C35.2216 13.9678 32.2826 11.0289 32.2826 7.40376C32.2826 3.77865 35.2216 0.8397 38.8467 0.8397H100.436M100.437 0H38.8467C34.7645 0 31.4441 3.32161 31.4441 7.40376C31.4441 11.4859 34.7657 14.8075 38.8479 14.8075H100.437C104.52 14.8075 107.841 11.4859 107.841 7.40376C107.841 3.32161 104.52 0 100.437 0Z" fill="#0500B2"/>
<path d="M6.56408 13.5469C3.17649 13.5469 0.419876 10.7902 0.419876 7.40265C0.419876 4.01506 3.17649 1.25964 6.56408 1.25964H50.1829C53.5705 1.25964 56.3271 4.01626 56.3271 7.40385C56.3271 10.7914 53.5705 13.5481 50.1829 13.5481H6.56408V13.5469Z" fill="#0500B2"/>
<path d="M50.1829 1.67942C53.3389 1.67942 55.9072 4.2477 55.9072 7.40378C55.9072 10.5598 53.3389 13.1281 50.1829 13.1281H6.56406C3.40798 13.1281 0.8397 10.5598 0.8397 7.40378C0.8397 4.2477 3.40798 1.67942 6.56406 1.67942H50.1829ZM50.1829 0.839722H6.56406C2.93895 0.839722 0 3.77867 0 7.40378C0 11.0289 2.93895 13.9678 6.56406 13.9678H50.1829C53.808 13.9678 56.7469 11.0289 56.7469 7.40378C56.7469 3.77867 53.808 0.839722 50.1829 0.839722Z" fill="white"/>
<path d="M5.35254 6.31695C5.50608 6.1634 5.67882 6.04585 5.86835 5.97267C6.24982 5.81913 6.65527 5.81913 7.03674 5.97267C7.22747 6.04705 7.39901 6.1634 7.55255 6.31695L8.03838 6.78478L8.97884 5.82513L8.50501 5.35129C8.22191 5.0682 7.89683 4.85347 7.53336 4.71792C6.83281 4.42882 6.06988 4.42882 5.35134 4.71792C5.00106 4.85347 4.67478 5.0682 4.39288 5.35129C4.10978 5.63439 3.89506 5.95468 3.75951 6.31095C3.62396 6.66123 3.55078 7.0307 3.55078 7.40616C3.55078 7.78163 3.61796 8.1379 3.75951 8.48937C3.89506 8.83965 4.10978 9.16593 4.39288 9.44903C4.67598 9.73213 4.99507 9.94685 5.35134 10.0956C5.70761 10.2312 6.07708 10.3043 6.44535 10.3043C6.81362 10.3043 7.17709 10.2371 7.53336 10.0956C7.89563 9.94805 8.22191 9.73213 8.50501 9.44903L8.97884 8.9752L8.03838 8.01554L7.54655 8.48937C7.405 8.63692 7.23347 8.75448 7.04873 8.82765C6.858 8.90203 6.65527 8.94401 6.45254 8.94401C6.0219 8.94401 5.66563 8.79646 5.35854 8.48817C5.20499 8.33463 5.08863 8.16189 5.01426 7.97116C4.94108 7.78043 4.8979 7.5837 4.8979 7.38697C4.8979 7.19024 4.93509 6.99351 5.01426 6.80278C5.08863 6.63004 5.19899 6.4645 5.35254 6.31695Z" fill="white"/>
<path d="M14.2904 5.36326C14.0073 5.08016 13.6822 4.86544 13.3188 4.72988C12.6182 4.44079 11.8553 4.44079 11.1368 4.72988C10.7865 4.86544 10.4602 5.08016 10.1783 5.36326C9.8952 5.64636 9.68047 5.96664 9.54492 6.32291C9.40937 6.67319 9.3362 7.04266 9.3362 7.40613C9.3362 7.7696 9.40337 8.14506 9.54492 8.50134C9.68047 8.85161 9.8952 9.1779 10.1783 9.46099C10.4554 9.7381 10.7685 9.94682 11.1188 10.0944C11.469 10.2419 11.8445 10.3163 12.232 10.3163C12.6194 10.3163 12.9937 10.2419 13.3452 10.0944C13.6954 9.94682 14.0157 9.7369 14.2916 9.46099L14.7655 8.98716L13.807 8.02751L13.3332 8.50134C13.0873 8.74725 12.8042 8.8948 12.4791 8.94998C12.4059 8.96197 12.3255 8.96797 12.2512 8.96797C12.0724 8.96797 11.9009 8.93678 11.7281 8.8756L14.7643 5.83589L14.2904 5.36206V5.36326ZM12.2128 5.85628C12.3915 5.85628 12.569 5.88747 12.7418 5.94865C12.6434 6.04701 12.5211 6.16457 12.3795 6.29892L10.7685 7.91115C10.7073 7.7516 10.6821 7.57887 10.6821 7.40013C10.6821 6.96948 10.8297 6.61201 11.1368 6.30492C11.3767 6.06501 11.6658 5.91746 11.9789 5.86828C12.0592 5.86228 12.1384 5.85628 12.2128 5.85628Z" fill="white"/>
<path d="M20.0748 5.36331C19.8109 5.09821 19.4966 4.88948 19.1464 4.74194C18.4638 4.43485 17.6037 4.42765 16.8972 4.74194C16.5469 4.88948 16.2338 5.09941 15.9687 5.36331C15.7108 5.62122 15.5021 5.92951 15.3473 6.27979C15.1998 6.62406 15.1266 7.00553 15.1266 7.40618V10.3163H16.4785V7.40618C16.4785 7.19026 16.5157 6.99353 16.5889 6.81599C16.6752 6.62526 16.7856 6.45852 16.9211 6.32417C17.0627 6.18262 17.2282 6.06626 17.413 5.99189C17.7944 5.82635 18.2371 5.82635 18.6233 5.99189C18.8141 6.06626 18.9736 6.17662 19.1152 6.32417C19.2567 6.45972 19.3671 6.62526 19.4474 6.81599C19.5278 6.99473 19.5698 7.19746 19.5698 7.40618V10.3163H20.9217V7.40618C20.9217 6.99953 20.8413 6.62526 20.6878 6.27979C20.5463 5.92951 20.3375 5.61522 20.0736 5.36331" fill="white"/>
<path d="M23.1421 6.31695C23.2956 6.1634 23.4684 6.04585 23.6579 5.97267C24.0394 5.81913 24.4448 5.81913 24.8263 5.97267C25.017 6.04705 25.1885 6.1634 25.3421 6.31695L25.8279 6.78478L26.7684 5.82513L26.2945 5.35129C26.0114 5.0682 25.6864 4.85347 25.3229 4.71792C24.6223 4.42882 23.8594 4.42882 23.1409 4.71792C22.7906 4.85347 22.4643 5.0682 22.1824 5.35129C21.8993 5.63439 21.6846 5.96068 21.549 6.31095C21.4135 6.66123 21.3403 7.0307 21.3403 7.40616C21.3403 7.78163 21.4075 8.1379 21.549 8.48937C21.6846 8.83965 21.8993 9.16593 22.1824 9.44903C22.4655 9.73213 22.7846 9.94685 23.1409 10.0956C23.4971 10.2312 23.8666 10.3043 24.2349 10.3043C24.6032 10.3043 24.9666 10.2371 25.3229 10.0956C25.6852 9.94805 26.0114 9.73213 26.2945 9.44903L26.7684 8.9752L25.8279 8.01554L25.3361 8.48937C25.1945 8.63692 25.023 8.75448 24.8383 8.82765C24.6475 8.90203 24.4508 8.94401 24.2421 8.94401C23.8114 8.94401 23.4492 8.79646 23.1421 8.48817C22.9885 8.33463 22.8782 8.16189 22.7978 7.97116C22.7246 7.78043 22.6814 7.5837 22.6814 7.38697C22.6814 7.19024 22.7186 6.99351 22.7978 6.80278C22.8722 6.63004 22.9825 6.4645 23.1421 6.31695Z" fill="white"/>
<path d="M32.073 5.36331C31.8091 5.09821 31.4948 4.88948 31.1445 4.74194C30.462 4.43485 29.6019 4.42765 28.8953 4.74194C28.545 4.88948 28.232 5.09941 27.9609 5.36331C27.7029 5.62122 27.4942 5.92951 27.3395 6.27979C27.1919 6.62406 27.1188 7.00553 27.1188 7.40618C27.1188 7.80684 27.1919 8.18111 27.3395 8.53258C27.493 8.88286 27.7017 9.19714 27.9609 9.46225C28.2248 9.72735 28.5391 9.94208 28.8953 10.0956C29.2456 10.2432 29.6271 10.3175 30.0205 10.3175C30.414 10.3175 30.8014 10.2432 31.1457 10.0956C31.496 9.94208 31.8091 9.73215 32.0742 9.46225C32.3381 9.19714 32.548 8.88406 32.6956 8.53258C32.8491 8.18231 32.9295 7.80084 32.9295 7.40618C32.9295 7.01153 32.8491 6.62526 32.6956 6.27979C32.554 5.92951 32.3453 5.61522 32.0742 5.36331M31.5752 7.40618C31.5752 7.61491 31.532 7.82483 31.4456 8.01557C31.3724 8.2063 31.2609 8.37304 31.1133 8.51339C30.9778 8.64894 30.8122 8.7593 30.6215 8.84567C30.24 8.99921 29.7794 8.99322 29.4111 8.84567C29.2204 8.7593 29.0489 8.64894 28.9073 8.51339C28.7718 8.36584 28.6554 8.1991 28.575 8.00837C28.5019 7.81764 28.4587 7.61491 28.4587 7.39899C28.4587 7.18306 28.4959 6.98633 28.569 6.8088C28.6554 6.61807 28.7658 6.45133 28.9013 6.31697C29.0429 6.17542 29.2144 6.06506 29.4051 5.98469C29.5959 5.89832 29.7986 5.86114 30.0073 5.86114C30.2161 5.86114 30.4248 5.90432 30.6155 5.99069C30.8062 6.06506 30.9658 6.17542 31.1073 6.32297C31.2489 6.45852 31.3592 6.62406 31.4396 6.8148C31.532 6.99353 31.5752 7.19626 31.5752 7.40498" fill="white"/>
<path d="M45.4554 7.40024V4.63163H44.2018V5.01309C43.7352 4.69281 43.169 4.50208 42.5548 4.50208C40.957 4.50208 39.6591 5.80001 39.6591 7.40624C39.6591 9.01246 40.9558 10.3044 42.5548 10.3044C43.163 10.3044 43.7352 10.1137 44.2018 9.79339V10.1748H45.4554V7.40024ZM42.5596 9.04965C41.6503 9.04965 40.9126 8.31071 40.9126 7.40024C40.9126 6.48977 41.6503 5.75083 42.5596 5.75083C43.4689 5.75083 44.2066 6.48977 44.2066 7.40024C44.2006 8.31071 43.4689 9.04965 42.5596 9.04965Z" fill="#FFA02C"/>
<path d="M50.7419 4.63157V7.40018C50.7419 8.31066 50.0042 9.04959 49.0949 9.04959C48.1856 9.04959 47.4479 8.31066 47.4479 7.40018V4.63157H46.1943V7.40018C46.1943 8.39103 46.6922 9.26432 47.4479 9.78733C47.9145 10.1076 48.4807 10.2983 49.0949 10.2983C49.7091 10.2983 50.2753 10.1076 50.7419 9.78733C50.7359 10.6918 50.0042 11.4175 49.0949 11.4175H48.5359V12.6723H49.0949C49.7031 12.6723 50.2753 12.4816 50.7419 12.1613C51.4976 11.6383 51.9955 10.765 51.9955 9.77413V4.63037H50.7419V4.63157Z" fill="#00BBED"/>
<path d="M36.2595 4.50208C34.754 4.50208 33.4992 5.65246 33.3577 7.12914V12.6676H34.6113V9.79338C35.0779 10.1137 35.6441 10.3044 36.2583 10.3044C37.8561 10.3044 39.154 9.00647 39.154 7.40024C39.154 5.79401 37.8573 4.50208 36.2583 4.50208H36.2595ZM36.2595 9.04965C35.3502 9.04965 34.6125 8.31071 34.6125 7.40024C34.6125 6.48977 35.3502 5.75083 36.2595 5.75083C37.1687 5.75083 37.9065 6.48977 37.9065 7.40024C37.9005 8.31071 37.1687 9.04965 36.2595 9.04965Z" fill="#E44B67"/>
</svg>
