<svg width="49" height="49" viewBox="0 0 49 49" fill="none" xmlns="http://www.w3.org/2000/svg">
<path d="M38.3664 4.6842C38.9404 4.32477 39.607 4.12767 40.3317 4.12767C42.4013 4.12767 44.0826 5.80308 44.0826 7.87851C44.0826 8.58578 43.8912 9.24087 43.5492 9.80321L43.5666 9.8148C46.5116 13.8149 48.2044 18.76 48.2044 24.0993C48.2044 37.4099 37.4157 48.1986 24.1051 48.1986C10.7945 48.1986 0 37.4099 0 24.0993C0 10.7887 10.7887 0 24.0993 0C29.4328 0 34.3721 1.75078 38.3664 4.6842Z" fill="white"/>
<path d="M41.6129 11.38C41.2187 11.525 40.7491 11.6177 40.3027 11.6177C38.2447 11.6177 36.5809 9.95389 36.5809 7.89586C36.5809 7.43207 36.6679 6.99148 36.8186 6.57987C33.2475 3.98269 28.8415 2.44061 24.0877 2.44061C12.1279 2.44061 2.43489 12.1395 2.43489 24.0993C2.43489 36.0591 12.1279 45.7521 24.0877 45.7521C36.0475 45.7521 45.7464 36.0591 45.7464 24.0993C45.7464 19.3513 44.2043 14.9512 41.6129 11.38Z" fill="#2DC850"/>
<path d="M38.32 7.86108C38.32 6.73061 39.236 5.81464 40.3665 5.81464C41.4969 5.81464 42.4129 6.73061 42.4129 7.86108C42.4129 8.99155 41.4969 9.90752 40.3665 9.90752C39.236 9.90752 38.32 8.99155 38.32 7.86108Z" fill="#2DC850"/>
<path d="M13.5483 36.5924C13.6816 36.4591 13.8265 36.3605 13.9947 36.2967C14.1628 36.2272 14.3309 36.1924 14.5048 36.1924C14.6787 36.1924 14.8469 36.2272 15.0092 36.2967C15.1773 36.3605 15.328 36.4591 15.4614 36.5924L15.6469 36.7779L15.2759 37.1547L15.0845 36.9692C15.0034 36.8881 14.9164 36.8301 14.8121 36.7895C14.7135 36.7489 14.6092 36.7315 14.5048 36.7315C14.4005 36.7315 14.2961 36.7547 14.1976 36.7895C14.099 36.8301 14.0063 36.8881 13.9251 36.9692C13.8439 37.0446 13.786 37.1315 13.7454 37.2359C13.7048 37.3344 13.6874 37.4388 13.6874 37.5432C13.6874 37.6475 13.7106 37.7461 13.7454 37.8504C13.786 37.949 13.8497 38.0417 13.9251 38.1171C14.0874 38.2794 14.2787 38.3606 14.499 38.3606C14.6092 38.3606 14.7077 38.3432 14.8121 38.3026C14.9106 38.262 14.9976 38.204 15.0788 38.1229L15.2701 37.9374L15.6411 38.3142L15.4556 38.4997C15.3222 38.633 15.1715 38.7316 15.0034 38.8012C14.8411 38.8649 14.6729 38.8997 14.499 38.8997C14.3251 38.8997 14.157 38.8649 13.9889 38.8012C13.8265 38.7316 13.6758 38.633 13.5425 38.4997C13.4091 38.3664 13.3106 38.2214 13.2526 38.0591C13.1888 37.8968 13.1541 37.7287 13.1541 37.5547C13.1541 37.3808 13.1888 37.2069 13.2526 37.0446C13.3164 36.8823 13.4149 36.7315 13.5425 36.604" fill="white"/>
<path d="M16.6208 36.975C16.4585 37.1373 16.3831 37.3286 16.3831 37.5489C16.3831 37.6706 16.4121 37.7924 16.4643 37.9025C16.5107 37.8561 16.586 37.7808 16.6788 37.6822C16.7773 37.5837 16.8817 37.4793 16.9918 37.3692C17.102 37.2532 17.2121 37.1489 17.3107 37.0503C17.415 36.9518 17.4962 36.8764 17.5484 36.8184C17.3977 36.7431 17.2353 36.7141 17.0614 36.7373C16.8933 36.7605 16.7426 36.8358 16.6208 36.9634M17.96 37.9373L18.3368 38.3141L18.1513 38.4996C18.0238 38.6272 17.8788 38.7257 17.7107 38.7953C17.5484 38.8649 17.3745 38.8997 17.1947 38.8997C17.015 38.8997 16.8411 38.8649 16.6788 38.7953C16.5165 38.7315 16.3715 38.633 16.244 38.4996C16.1107 38.3663 16.0121 38.2214 15.9483 38.0591C15.8846 37.8909 15.8556 37.7228 15.8556 37.5489C15.8556 37.375 15.8846 37.2069 15.9483 37.0445C16.0121 36.8822 16.1107 36.7315 16.244 36.5981C16.3773 36.4648 16.5223 36.3662 16.6846 36.3025C16.8527 36.2329 17.0266 36.2039 17.1947 36.2039C17.3629 36.2039 17.5368 36.2387 17.6991 36.3025C17.8672 36.3662 18.018 36.4648 18.1513 36.5981L18.3368 36.7836L16.8411 38.2793C16.9918 38.3547 17.1542 38.3779 17.3223 38.3547C17.4962 38.3257 17.6469 38.2504 17.7745 38.1228L17.96 37.9373Z" fill="white"/>
<path d="M18.5049 37.5432C18.5049 37.3519 18.5397 37.178 18.6035 37.0215C18.6789 36.8591 18.7716 36.7142 18.8934 36.5925C19.0151 36.4649 19.1658 36.3722 19.3282 36.3026C19.4905 36.233 19.6644 36.1982 19.8499 36.1982C20.0354 36.1982 20.2151 36.233 20.3717 36.3026C20.534 36.3722 20.6789 36.4649 20.8007 36.5925C20.9224 36.7142 21.021 36.8533 21.0905 37.0215C21.1601 37.1838 21.2007 37.3519 21.2007 37.5432V38.894H20.6673V37.5432C20.6673 37.4331 20.6441 37.3287 20.6036 37.2302C20.563 37.1316 20.505 37.0446 20.4296 36.9751C20.3543 36.8997 20.2731 36.8417 20.1688 36.8012C20.0702 36.7548 19.9601 36.7316 19.8499 36.7316C19.7398 36.7316 19.6296 36.7548 19.5311 36.8012C19.4383 36.8417 19.3513 36.8997 19.276 36.9751C19.2064 37.0446 19.1484 37.1316 19.1021 37.2302C19.0615 37.3287 19.0441 37.4331 19.0441 37.5432V38.894H18.5107V37.5432H18.5049Z" fill="white"/>
<path d="M21.7688 36.5924C21.9022 36.4591 22.0471 36.3605 22.2094 36.2967C22.3775 36.2272 22.5457 36.1924 22.7196 36.1924C22.8935 36.1924 23.0616 36.2272 23.2239 36.2967C23.3921 36.3605 23.5428 36.4591 23.6703 36.5924L23.8558 36.7779L23.4848 37.1547L23.2935 36.9692C23.2124 36.8881 23.1254 36.8301 23.021 36.7895C22.9225 36.7489 22.8181 36.7315 22.7138 36.7315C22.6094 36.7315 22.5051 36.7547 22.4065 36.7895C22.308 36.8301 22.2152 36.8881 22.1341 36.9692C22.0529 37.0446 21.9949 37.1315 21.9543 37.2359C21.9138 37.3344 21.8964 37.4388 21.8964 37.5432C21.8964 37.6475 21.9138 37.7461 21.9543 37.8504C21.9949 37.949 22.0529 38.0417 22.1341 38.1171C22.2964 38.2794 22.4877 38.3606 22.708 38.3606C22.8123 38.3606 22.9167 38.3432 23.021 38.3026C23.1196 38.262 23.2066 38.204 23.2877 38.1229L23.479 37.9374L23.8501 38.3142L23.6645 38.4997C23.5312 38.633 23.3805 38.7316 23.2181 38.8012C23.0558 38.8649 22.8877 38.8997 22.7138 38.8997C22.5399 38.8997 22.3717 38.8649 22.2036 38.8012C22.0413 38.7316 21.8906 38.633 21.763 38.4997C21.6297 38.3664 21.5311 38.2214 21.4674 38.0591C21.4036 37.8968 21.3746 37.7287 21.3746 37.5547C21.3746 37.3808 21.4036 37.2069 21.4674 37.0446C21.5311 36.8823 21.6297 36.7315 21.763 36.604" fill="white"/>
<path d="M24.5921 37.5489C24.5921 37.659 24.6095 37.7692 24.6501 37.8677C24.6906 37.9663 24.7544 38.0533 24.824 38.1344C24.8993 38.2098 24.9863 38.262 25.0906 38.3083C25.1892 38.3489 25.2936 38.3663 25.4095 38.3663C25.5254 38.3663 25.6298 38.3431 25.7284 38.3083C25.8269 38.262 25.9139 38.2098 25.9834 38.1344C26.0588 38.0591 26.1168 37.9721 26.1573 37.8677C26.2037 37.7692 26.2211 37.6648 26.2211 37.5489C26.2211 37.4329 26.1979 37.3344 26.1573 37.2358C26.1168 37.1373 26.0588 37.0503 25.9834 36.9808C25.9139 36.9054 25.8269 36.8474 25.7284 36.8068C25.6298 36.7605 25.5196 36.7373 25.4095 36.7373C25.2994 36.7373 25.1892 36.7605 25.0906 36.8068C24.9863 36.8474 24.8993 36.9054 24.824 36.9808C24.7544 37.0503 24.6906 37.1431 24.6501 37.2358C24.6095 37.3286 24.5921 37.4329 24.5921 37.5489ZM24.0645 37.5489C24.0645 37.3634 24.0993 37.1837 24.1689 37.0271C24.2384 36.8648 24.337 36.7199 24.4587 36.6039C24.5863 36.4822 24.7254 36.3836 24.8935 36.3141C25.0559 36.2387 25.2298 36.2039 25.4153 36.2039C25.6008 36.2039 25.7805 36.2387 25.9371 36.3141C26.0994 36.3836 26.2443 36.4764 26.3718 36.6039C26.4936 36.7257 26.5921 36.8648 26.6617 37.0271C26.7313 37.1895 26.7719 37.3634 26.7719 37.5489C26.7719 37.7344 26.7371 37.9083 26.6617 38.0706C26.5921 38.233 26.4994 38.3779 26.3718 38.5054C26.2501 38.6272 26.1052 38.7257 25.9371 38.8011C25.7747 38.8707 25.6008 38.9055 25.4153 38.9055C25.2298 38.9055 25.0559 38.8707 24.8935 38.8011C24.7312 38.7315 24.5863 38.633 24.4587 38.5054C24.337 38.3837 24.2442 38.2388 24.1689 38.0706C24.0993 37.9083 24.0645 37.7344 24.0645 37.5489Z" fill="white"/>
<path d="M29.3517 36.1924V36.7257H27.7226C27.6473 36.7257 27.5835 36.7547 27.5313 36.8069C27.4792 36.8591 27.456 36.9228 27.456 36.9982C27.456 37.0736 27.4792 37.1373 27.5313 37.1953C27.5835 37.2475 27.6473 37.2765 27.7226 37.2765H28.8009C28.9111 37.2765 29.0154 37.2997 29.114 37.346C29.2125 37.3866 29.2995 37.4446 29.3749 37.5142C29.4502 37.5837 29.5082 37.6707 29.5488 37.775C29.5894 37.8736 29.6126 37.9721 29.6126 38.0881C29.6126 38.204 29.5894 38.3084 29.5488 38.4069C29.5082 38.4997 29.4502 38.5867 29.3749 38.6678C29.3053 38.7374 29.2183 38.7954 29.114 38.8417C29.0154 38.8823 28.9169 38.8997 28.8009 38.8997H27.1835V38.3664H28.8009C28.8821 38.3664 28.9459 38.3432 28.998 38.291C29.0502 38.2388 29.0734 38.1693 29.0734 38.0939C29.0734 38.0185 29.0502 37.9548 28.998 37.9026C28.9459 37.8504 28.8821 37.8272 28.8009 37.8272H27.7226C27.6125 37.8272 27.5024 37.804 27.4038 37.7634C27.3052 37.7229 27.2241 37.6649 27.1487 37.5895C27.0791 37.5142 27.0154 37.4272 26.9748 37.3344C26.9342 37.2359 26.9168 37.1257 26.9168 37.0156C26.9168 36.9054 26.9342 36.8011 26.9748 36.7025C27.0154 36.604 27.0791 36.517 27.1487 36.4417C27.2183 36.3663 27.3052 36.3141 27.4038 36.2735C27.5024 36.2272 27.6067 36.204 27.7226 36.204H29.3517V36.1924Z" fill="white"/>
<path d="M32.4764 36.1924V37.5374C32.4764 37.7229 32.4416 37.8968 32.3721 38.0591C32.3025 38.2214 32.2097 38.3664 32.0822 38.4881C31.9605 38.6156 31.8155 38.7142 31.6474 38.7838C31.4851 38.8533 31.3112 38.8881 31.1257 38.8881C30.9401 38.8881 30.7662 38.8533 30.6039 38.7838C30.4416 38.7142 30.2966 38.6156 30.1749 38.4881C30.0532 38.3664 29.9546 38.2214 29.885 38.0591C29.8155 37.8968 29.7865 37.7229 29.7865 37.5374V36.1924H30.3198V37.5374C30.3198 37.6475 30.343 37.7577 30.3778 37.8562C30.4242 37.9548 30.4822 38.0475 30.5517 38.1229C30.6271 38.1924 30.714 38.2562 30.8126 38.2968C30.9112 38.3374 31.0213 38.3548 31.1315 38.3548C31.2416 38.3548 31.3517 38.3316 31.4503 38.2968C31.5489 38.2562 31.6358 38.1924 31.7054 38.1229C31.7807 38.0475 31.8387 37.9606 31.8793 37.8562C31.9257 37.7577 31.9489 37.6533 31.9489 37.5374V36.1924H32.4822H32.4764Z" fill="white"/>
<path d="M33.9779 38.3548C34.0881 38.3548 34.1924 38.3374 34.291 38.2968C34.3895 38.2504 34.4765 38.1924 34.5461 38.1229C34.6214 38.0475 34.6794 37.9605 34.72 37.8562C34.7606 37.7576 34.7837 37.6533 34.7837 37.5373V36.7257H33.9721C33.862 36.7257 33.7518 36.7489 33.6533 36.7953C33.5547 36.8359 33.462 36.8938 33.3866 36.9692C33.3112 37.0388 33.2591 37.1257 33.2127 37.2243C33.1721 37.3228 33.1489 37.4272 33.1489 37.5373C33.1489 37.6475 33.1721 37.7576 33.2127 37.8562C33.2533 37.9547 33.3112 38.0475 33.3866 38.1229C33.462 38.1924 33.5489 38.2504 33.6533 38.2968C33.7518 38.3374 33.8562 38.3548 33.9721 38.3548M35.3229 35.1141V37.5373C35.3229 37.7229 35.2881 37.8968 35.2127 38.0591C35.149 38.2214 35.0504 38.3664 34.9229 38.4881C34.8011 38.6098 34.662 38.7142 34.4997 38.7838C34.3373 38.8533 34.1634 38.8881 33.9779 38.8881C33.7924 38.8881 33.6185 38.8533 33.4562 38.7838C33.2938 38.7142 33.1489 38.6156 33.0214 38.4881C32.8996 38.3664 32.8011 38.2214 32.7257 38.0591C32.6561 37.8968 32.6214 37.7229 32.6214 37.5373C32.6214 37.3518 32.6561 37.1779 32.7257 37.0156C32.8011 36.8533 32.8938 36.7083 33.0214 36.5924C33.1431 36.4648 33.288 36.3721 33.4562 36.3025C33.6185 36.2272 33.7924 36.1924 33.9779 36.1924H34.7895V35.1141H35.3229Z" fill="white"/>
<path d="M39.9375 21.6528C39.6013 21.6528 39.2766 21.7165 38.9694 21.8441C38.6621 21.9716 38.3954 22.1455 38.1693 22.3774C37.9432 22.6035 37.7635 22.8644 37.6302 23.1717C37.4969 23.4731 37.4331 23.8036 37.4331 24.163C37.4331 24.4992 37.4969 24.8239 37.6302 25.1311C37.7635 25.4384 37.9432 25.7051 38.1693 25.9428C38.3954 26.1746 38.6621 26.3602 38.9694 26.4877C39.2766 26.621 39.6013 26.6906 39.9375 26.6906C40.2738 26.6906 40.5926 26.621 40.9057 26.4877C41.2129 26.3544 41.4796 26.1746 41.7057 25.9428C41.9318 25.7109 42.1115 25.4384 42.2448 25.1311C42.3782 24.8239 42.4477 24.4992 42.4477 24.163C42.413 23.4789 42.1695 22.905 41.7173 22.4296C41.2651 21.96 40.6796 21.7049 39.9607 21.6586H39.9433L39.9375 21.6528ZM39.9549 19.9252C40.523 19.9252 41.0622 20.0411 41.5665 20.2672C42.0709 20.4933 42.5173 20.7948 42.8999 21.1832C43.2825 21.5658 43.584 22.0122 43.8101 22.5224C44.0362 23.0325 44.1463 23.5775 44.1463 24.1572C44.1463 24.7369 44.0362 25.2819 43.8159 25.7862C43.5956 26.2906 43.2941 26.737 42.9173 27.1196C42.5405 27.5022 42.0941 27.8037 41.5839 28.024C41.0738 28.2443 40.523 28.3544 39.9317 28.3544C39.3404 28.3544 38.807 28.2501 38.2969 28.0414C37.7867 27.8327 37.3403 27.5428 36.9577 27.166C36.5751 26.7892 36.2736 26.3428 36.0533 25.8384C35.833 25.3282 35.7229 24.7717 35.7229 24.1688C35.7229 23.5659 35.8272 23.0499 36.0417 22.5455C36.2562 22.0412 36.5519 21.6006 36.9345 21.2238C37.3171 20.8469 37.7635 20.5455 38.2853 20.3194C38.8012 20.0933 39.3578 19.9658 39.9491 19.9426" fill="white"/>
<path d="M16.8121 24.7427C16.8121 25.8036 15.9425 26.6674 14.87 26.6674C14.2497 26.6674 13.6932 26.3775 13.3396 25.9254C13.241 25.8094 13.154 25.6819 13.0845 25.5137C13.0613 25.4674 13.0497 25.4094 13.0323 25.3572L13.0091 25.2877L12.9975 25.2413C12.9511 25.079 12.928 24.9108 12.928 24.7369C12.928 24.7079 12.928 24.6789 12.928 24.6558C12.928 24.5862 12.928 24.5166 12.928 24.4528V20.8006C12.928 20.5687 12.841 20.36 12.6613 20.186C12.4816 20.0121 12.2845 19.9136 12.0584 19.902C11.8091 19.9136 11.6004 20.0063 11.4265 20.1745C11.2525 20.3426 11.1714 20.5455 11.1714 20.7832V24.592C11.1598 25.2761 11.3685 25.8326 11.5482 26.2152L11.5888 26.2964C11.6294 26.3833 11.6757 26.4645 11.7221 26.5515C11.7453 26.592 11.7743 26.6326 11.7975 26.679C11.8265 26.7254 11.8555 26.7718 11.8844 26.8181C12.1395 27.1776 12.4526 27.4906 12.8178 27.7399L12.8642 27.7689C13.1309 27.9428 13.4265 28.0819 13.7338 28.1863C13.9773 28.2617 14.2671 28.3138 14.6092 28.3544C14.6555 28.3544 14.6961 28.3602 14.7425 28.3602C14.7831 28.3602 14.8237 28.366 14.87 28.366H14.9164C15.0208 28.366 15.1251 28.3602 15.2295 28.3486C15.3454 28.337 15.4614 28.3196 15.5715 28.3022H15.5889C15.8498 28.2443 16.0875 28.1689 16.3078 28.0819C16.6788 27.9254 17.015 27.7109 17.3107 27.4442C17.5832 27.1776 17.8267 26.8993 18.0296 26.5747L18.0412 26.5573C18.0759 26.4935 18.1107 26.4239 18.1455 26.3602C18.1745 26.308 18.2035 26.2616 18.2267 26.2094C18.4644 25.6993 18.5803 25.1659 18.5803 24.6036V20.7948C18.5803 20.5629 18.4933 20.36 18.3252 20.186C18.1513 20.0179 17.9426 19.9252 17.6933 19.9136C17.4672 19.9252 17.2701 20.0179 17.0904 20.1976C16.9107 20.3716 16.8237 20.5803 16.8237 20.8122V24.4644" fill="white"/>
<path d="M28.6386 27.3457V22.7542C28.6386 20.9455 27.6299 19.902 25.8675 19.902C25.1718 19.902 24.3776 20.2788 24.0529 20.76L23.821 21.0962L23.6123 20.7426C23.3341 20.2614 22.5862 19.902 21.8732 19.902C20.1166 19.902 19.1021 20.9397 19.1021 22.7542V27.3863C19.1021 27.9254 19.4557 28.366 19.989 28.366C20.5224 28.366 20.8992 27.9254 20.8992 27.3863V27.3457V22.5629C20.8992 22.0238 21.3456 21.618 21.8848 21.618C22.4239 21.618 22.9341 22.0238 22.9341 22.5629V26.4819V27.3457V27.3863C22.9341 27.9254 23.3515 28.366 23.8674 28.366C24.3834 28.366 24.8008 27.9254 24.8008 27.3863V27.3399V26.4877V22.5745C24.8008 22.0296 25.2762 21.618 25.8211 21.618C26.3661 21.618 26.8356 22.0238 26.8356 22.5745V27.3457V27.3863C26.8356 27.9254 27.2183 28.366 27.7516 28.366C28.285 28.366 28.6386 27.9254 28.6386 27.3863V27.3399V27.3457Z" fill="white"/>
<path d="M35.6475 26.0935C35.6475 25.137 35.0098 24.3138 34.1112 23.9775L34.1344 23.9659C34.9634 23.6239 35.4214 22.8876 35.4214 22.0412C35.4214 20.8702 34.4475 19.9194 33.0967 19.9078H30.1459C29.6821 19.9368 29.2879 20.3426 29.2879 20.8122V20.8296L29.2995 27.4675V27.5081C29.2995 27.9835 29.6821 28.3719 30.1633 28.3835H33.0271C33.0793 28.3835 33.1315 28.3835 33.1894 28.3835C33.2532 28.3835 33.3228 28.3835 33.3866 28.3777C33.5721 28.3719 33.7518 28.3371 33.9199 28.2849C34.9228 27.995 35.6533 27.1313 35.6533 26.0993M32.6967 21.5485C33.2474 21.5485 33.6764 21.9659 33.6764 22.4992C33.6764 23.0152 33.2358 23.4384 32.7025 23.4384H31.056V21.5543H32.7025L32.6967 21.5485ZM31.0502 24.8471H32.917C33.4503 24.8471 33.8793 25.2703 33.8851 25.7921C33.8851 26.3196 33.4619 26.7312 32.9228 26.7312H31.056V24.8471H31.0502Z" fill="white"/>
<path d="M10.638 25.2934V21.2006C10.638 21.0151 10.6496 20.8121 10.6033 20.6324C10.5395 20.3831 10.3714 20.1744 10.1569 20.0353C9.98874 19.9252 9.79163 19.8846 9.58873 19.8846H6.74806C6.52197 19.8846 6.30747 19.9715 6.14514 20.1223C5.73933 20.5049 5.8089 21.1832 6.27848 21.4846C6.52197 21.6412 6.79444 21.6238 7.06691 21.6238H8.89306V21.989L8.89885 24.1224V25.0036C8.89885 25.0963 8.89885 25.1833 8.89885 25.2761V25.2877C8.89885 26.1225 8.22057 26.8007 7.38576 26.8007C6.55095 26.8007 5.90166 26.1456 5.87847 25.334V25.305V25.2645C5.85528 24.8065 5.47845 24.4355 5.00887 24.4355C4.53929 24.4355 4.13928 24.8239 4.13928 25.305C4.13928 25.3514 4.13928 25.392 4.15088 25.4384C4.25523 27.2181 5.61179 28.3834 7.46692 28.3834C10.7134 28.3834 10.6496 24.934 10.6438 25.2934" fill="white"/>
</svg>
