<svg width="134" height="78" viewBox="0 0 134 78" fill="none" xmlns="http://www.w3.org/2000/svg">
<path d="M132.368 76.759V76.313C132.368 75.8203 132.882 75.421 133.518 75.421C133.662 75.421 133.796 75.4443 133.924 75.4822V71.0746C133.796 71.1125 133.662 71.1358 133.518 71.1358C132.882 71.1358 132.368 70.7365 132.368 70.2438V67.7398C132.368 67.2472 132.882 66.8478 133.518 66.8478C133.662 66.8478 133.796 66.8711 133.924 66.909V62.5015C133.796 62.5394 133.662 62.5627 133.518 62.5627C132.882 62.5627 132.368 62.1633 132.368 61.6707V59.1667C132.368 58.674 132.882 58.2747 133.518 58.2747C133.662 58.2747 133.796 58.298 133.924 58.3359V53.9283C133.796 53.9662 133.662 53.9896 133.518 53.9896C132.882 53.9896 132.368 53.5902 132.368 53.0975V50.5935C132.368 50.1009 132.882 49.7015 133.518 49.7015C133.662 49.7015 133.796 49.7248 133.924 49.7627V45.3552C133.796 45.3931 133.662 45.4164 133.518 45.4164C132.882 45.4164 132.368 45.017 132.368 44.5244V42.0204C132.368 41.5277 132.882 41.1284 133.518 41.1284C133.662 41.1284 133.796 41.1517 133.924 41.1896V36.782C133.796 36.8199 133.662 36.8433 133.518 36.8433C132.882 36.8433 132.368 36.4439 132.368 35.9513V33.4472C132.368 32.9546 132.882 32.5552 133.518 32.5552C133.662 32.5552 133.796 32.5785 133.924 32.6164V28.2089C133.796 28.2468 133.662 28.2701 133.518 28.2701C132.882 28.2701 132.368 27.8707 132.368 27.3781V24.8741C132.368 24.3814 132.882 23.9821 133.518 23.9821C133.662 23.9821 133.796 24.0054 133.924 24.0433V19.6357C133.796 19.6736 133.662 19.697 133.518 19.697C132.882 19.697 132.368 19.2976 132.368 18.805V16.3009C132.368 15.8083 132.882 15.4089 133.518 15.4089C133.662 15.4089 133.796 15.4323 133.924 15.4701V11.0626C133.796 11.1005 133.662 11.1238 133.518 11.1238C132.882 11.1238 132.368 10.7245 132.368 10.2318V7.72779C132.368 7.23514 132.882 6.83578 133.518 6.83578C133.662 6.83578 133.796 6.8591 133.924 6.897V2.48945C133.796 2.52734 133.662 2.55066 133.518 2.55066C132.882 2.55066 132.368 2.1513 132.368 1.65866V1.21266C132.368 0.720016 132.882 0.320655 133.518 0.320655C133.662 0.320655 133.796 0.343975 133.924 0.381871V0H128.265V77.3362H132.648C132.475 77.1817 132.368 76.9805 132.368 76.759Z" fill="#476D32"/>
<path d="M2.07135 76.7583V76.3117C2.07135 75.8184 1.3849 75.4215 0.53957 75.4215C0.347723 75.4215 0.167866 75.4448 0 75.4799V71.0727C0.167866 71.1106 0.350721 71.1311 0.53957 71.1311C1.3849 71.1311 2.07135 70.7312 2.07135 70.2409V67.7366C2.07135 67.2434 1.3849 66.8464 0.53957 66.8464C0.347723 66.8464 0.167866 66.8698 0 66.9048V62.4976C0.167866 62.5355 0.350721 62.556 0.53957 62.556C1.3849 62.556 2.07135 62.1561 2.07135 61.6658V59.1616C2.07135 58.6683 1.3849 58.2714 0.53957 58.2714C0.347723 58.2714 0.167866 58.2947 0 58.3297V53.9225C0.167866 53.9605 0.350721 53.9809 0.53957 53.9809C1.3849 53.9809 2.07135 53.5811 2.07135 53.0907V50.5865C2.07135 50.0932 1.3849 49.6963 0.53957 49.6963C0.347723 49.6963 0.167866 49.7196 0 49.7547V45.3475C0.167866 45.3854 0.350721 45.4088 0.53957 45.4088C1.3849 45.4088 2.07135 45.0089 2.07135 44.5186V42.0143C2.07135 41.5211 1.3849 41.1241 0.53957 41.1241C0.347723 41.1241 0.167866 41.1475 0 41.1854V36.7782C0.167866 36.8162 0.350721 36.8395 0.53957 36.8395C1.3849 36.8395 2.07135 36.4397 2.07135 35.9464V33.4422C2.07135 32.9489 1.3849 32.552 0.53957 32.552C0.347723 32.552 0.167866 32.5753 0 32.6104V28.2032C0.167866 28.2411 0.350721 28.2615 0.53957 28.2615C1.3849 28.2615 2.07135 27.8617 2.07135 27.3713V24.8671C2.07135 24.3739 1.3849 23.9769 0.53957 23.9769C0.347723 23.9769 0.167866 24.0003 0 24.0353V19.6281C0.167866 19.666 0.350721 19.6865 0.53957 19.6865C1.3849 19.6865 2.07135 19.2866 2.07135 18.7963V16.292C2.07135 15.7988 1.3849 15.4019 0.53957 15.4019C0.347723 15.4019 0.167866 15.4252 0 15.4602V11.053C0.167866 11.091 0.350721 11.1114 0.53957 11.1114C1.3849 11.1114 2.07135 10.7115 2.07135 10.2212V7.71698C2.07135 7.22372 1.3849 6.82678 0.53957 6.82678C0.347723 6.82678 0.167866 6.85013 0 6.88516V2.47796C0.167866 2.5159 0.350721 2.53925 0.53957 2.53925C1.3849 2.53925 2.07135 2.13939 2.07135 1.64905V1.20249C2.07135 0.709238 1.3849 0.312298 0.53957 0.312298C0.347723 0.312298 0.167866 0.335648 0 0.373591V0H7.54499V77.3362H1.69665C1.92746 77.1815 2.06835 76.9801 2.06835 76.7583" fill="#476D32"/>
<path d="M128.265 0.0712891H7.54498V77.4074H128.265V0.0712891Z" fill="#58893E"/>
</svg>
